<?xml version="1.0" encoding="UTF-8"?>
<svg id="Capa_2" data-name="Capa 2" xmlns="http://www.w3.org/2000/svg" viewBox="0 0 77.84 77.84">
  <defs>
    <style>
      .cls-1 {
        fill: #232323;
      }
    </style>
  </defs>
  <g id="Capa_5" data-name="Capa 5">
    <g>
      <path class="cls-1" d="M38.92,77.84C17.46,77.84,0,60.38,0,38.92S17.46,0,38.92,0s38.92,17.46,38.92,38.92-17.46,38.92-38.92,38.92ZM38.92,3.2C19.22,3.2,3.2,19.22,3.2,38.92s16.03,35.72,35.72,35.72,35.72-16.03,35.72-35.72S58.62,3.2,38.92,3.2Z"/>
      <path class="cls-1" d="M6.09,56.08C1.22,48.53-.07,41.76,2.54,39.28c.53-.51,1.46-1.05,3.16-1.1,0,0,0,0,0,0,1.79-.53,3.63-1,5.41-1.63,2.49-.88,3.9-2.75,4.38-5.31.19-1.02.73-1.73,1.66-2.06,1.02-.35,1.95-.85,2.81-1.48.63-.46,1.21-.97,1.53-1.55-.56-.89-1.11-1.68-1.56-2.52-.71-1.35-.71-2.73.02-4.1.24-.46.57-.6,1.08-.62.94-.03,1.91-.04,2.82-.24,1.87-.42,3.63-.11,5.39.5.17.06.41.06.58,0,.48-.18.92-.44,1.4-.61,1.52-.53,3.08-.65,4.66-.27.63.15.62.16.88-.42.77-1.67,1.9-3,3.6-3.79.89-.41,1.8-.61,2.83-.49-1.39,1.86-2.88,3.6-3.61,5.89.43.05.76.06,1.08-.18,1.35-.99,2.68-2.02,4.08-2.94,1.23-.8,2.58-1.36,4.07-1.51.94-.09,1.8.12,2.5.85-.92.85-1.82,1.66-2.68,2.51-.99.99-1.94,2.03-2.92,3.04-.23.24-.12.37.06.59.73.87,1.53,1.7,2.12,2.65.77,1.25,1.35,2.61,2.04,3.9.55,1.03,1.11,2.06,1.73,3.05.77,1.23,1.57,2.47,2.7,3.41,1.08.9,2.26,1.67,3.4,2.49,2.74,1.98,5.5,3.93,8.23,5.93,1.75,1.28,2.03,3.79.67,5.48-.16.2-.25.47-.31.72-.33,1.48-.97,2.7-2.54,3.19-.1.03-.21.12-.28.21-1.05,1.44-2.53,2.25-4.21,2.67-2.05.52-4.12.33-6.15-.16-.15-.04-.28-.04-.4-.02-.2.04-.33.16-.34.17-.42.33-9.62.28-13.32,1.58-4.45,1.57-6.3,7.01-6.64,8-1.84,5.4.82,9.04-.79,10.45-1.31,1.15-5.08.48-15.83-7.4"/>
    </g>
  </g>
</svg>