<?xml version="1.0" encoding="UTF-8"?>
<svg id="Capa_2" data-name="Capa 2" xmlns="http://www.w3.org/2000/svg" viewBox="0 0 77.84 77.84">
  <defs>
    <style>
      .cls-1 {
        fill: #232323;
      }
    </style>
  </defs>
  <g id="Capa_5" data-name="Capa 5">
    <g>
      <path class="cls-1" d="M3.49,51.72c.55-1.82,6.13-19.98,15.71-31.52,5.79-6.98,12.24-11.33,12.24-11.33,1.24-.89,2.61-1.58,4.7-2.83.59,4.27,1.22,7.81,1.52,11.38.23,2.7,1.48,3.66,4.06,3.43,7.04-.63,11.99,2.05,15.12,8.68,1.87,3.98,5.4,6.53,9.91,7.75,1.44.39,3.15,2.33,3.47,3.83.72,3.34.51,6.3-.57,8.87-3.06,7.24-11.62,9.34-12.78,9.62-6.19,1.49-9.99.43-11.99.69-2.64.35-5.96,3.52-8.98,15.83-4.4-.32-10.54-1.51-16.49-5.38-5.75-3.74-9.17-8.58-11.83-12.35-1.86-2.63-3.19-4.98-4.08-6.67Z"/>
      <path class="cls-1" d="M38.92,77.84C17.46,77.84,0,60.38,0,38.92S17.46,0,38.92,0s38.92,17.46,38.92,38.92-17.46,38.92-38.92,38.92ZM38.92,3.2C19.22,3.2,3.2,19.22,3.2,38.92s16.03,35.72,35.72,35.72,35.72-16.03,35.72-35.72S58.62,3.2,38.92,3.2Z"/>
    </g>
  </g>
</svg>