<?xml version="1.0" encoding="UTF-8"?>
<svg id="Capa_2" data-name="Capa 2" xmlns="http://www.w3.org/2000/svg" viewBox="0 0 77.84 77.84">
  <defs>
    <style>
      .cls-1 {
        fill: #232323;
      }
    </style>
  </defs>
  <g id="Capa_5" data-name="Capa 5">
    <g>
      <path class="cls-1" d="M46.83,58.08c.14,0,.27,0,.27,0h0c.37.02.62.13,2.29.22.94.05,2.17.05,6.55-.03.74-.01,1.48-.03,2.22-.07,3.18-.14,5.98-1.23,8.05-3.8.9-1.13,1.88-2.2,2.73-3.37,2.24-3.08,1.69-5.45-1.6-7.22-.03-.02-.06-.03-.09-.04-3.22-1.44-6.4-3-9.68-4.3-3.36-1.34-6.09-3.15-7.41-6.74-.81-2.2-2.42-3.91-4.47-5.06-2.46-1.38-4.97-2.68-7.52-3.88-.85-.4-1.41-.85-1.61-1.74-.51-2.3-1-4.6-1.5-6.9-.46-2.1-.89-4.21-1.44-6.29-.26-.97-.68-1.07-1.46-.44-.78.64-1.51,1.34-2.2,2.08-3.09,3.32-5.15,7.19-6.25,11.6-.26,1.03-.88,2.03-1.54,2.88-1.68,2.14-3.01,3.59-3.72,4.25-4.13,3.83-3.67,9.99-8.45,17.32-1.1,1.69-2.93,4.12-5.88,6.65,1.34,3.37,2.88,5.94,4.09,7.7,3.77,5.51,9.63,11.03,14.17,12.09.38.09,1.53.33,3.04.9,2,.77,3.52,1.7,4.49,2.37,4.1-5.41,8.21-10.82,12.31-16.23,0,0,3.62-1.91,4.6-1.94Z"/>
      <path class="cls-1" d="M38.92,77.84C17.46,77.84,0,60.38,0,38.92S17.46,0,38.92,0s38.92,17.46,38.92,38.92-17.46,38.92-38.92,38.92ZM38.92,3.2C19.22,3.2,3.2,19.22,3.2,38.92s16.03,35.72,35.72,35.72,35.72-16.03,35.72-35.72S58.62,3.2,38.92,3.2Z"/>
    </g>
  </g>
</svg>