<?xml version="1.0" encoding="UTF-8"?>
<svg id="Capa_2" data-name="Capa 2" xmlns="http://www.w3.org/2000/svg" viewBox="0 0 822.25 220.08">
  <defs>
    <style>
      .cls-1 {
        fill: #232323;
      }
    </style>
  </defs>
  <g id="Capa_1-2" data-name="Capa 1">
    <g>
      <g>
        <path class="cls-1" d="M186.03,122.28c0-5.24,4-9.4,9.24-9.4s9.39,4.16,9.39,9.4v3.85c5.24-7.24,12.32-14.02,24.8-14.02,11.71,0,20.02,5.7,24.34,14.32,6.47-8.63,15.09-14.32,27.41-14.32,17.71,0,28.5,11.24,28.5,31.11v43.43c0,5.24-4.01,9.24-9.24,9.24s-9.4-4-9.4-9.24v-37.73c0-12.94-6.01-19.87-16.48-19.87s-17.4,7.08-17.4,20.18v37.43c0,5.24-4.16,9.24-9.24,9.24s-9.39-4-9.39-9.24v-37.89c0-12.63-6.16-19.71-16.48-19.71s-17.4,7.7-17.4,20.18v37.43c0,5.24-4.16,9.24-9.39,9.24s-9.24-4-9.24-9.24v-64.38Z"/>
        <path class="cls-1" d="M332.05,91.94c0-5.54,4.62-9.09,10.63-9.09s10.63,3.54,10.63,9.09v.92c0,5.54-4.62,9.24-10.63,9.24s-10.63-3.7-10.63-9.24v-.92ZM333.43,122.28c0-5.24,4-9.4,9.24-9.4s9.39,4.16,9.39,9.4v64.38c0,5.24-4.16,9.24-9.39,9.24s-9.24-4-9.24-9.24v-64.38Z"/>
        <path class="cls-1" d="M381.18,212.84c-3.24-1.23-5.24-3.85-5.24-7.39,0-4.16,3.54-7.7,7.86-7.7,1.39,0,2.46.31,3.39.77,7.39,4.16,15.56,6.47,24.95,6.47,16.63,0,25.72-8.63,25.72-24.95v-6.32c-6.78,8.78-15.25,14.94-28.65,14.94-19.1,0-36.97-14.17-36.97-38.04v-.31c0-24.03,18.02-38.2,36.97-38.2,13.71,0,22.18,6.32,28.5,13.86v-3.85c0-5.08,4.16-9.24,9.24-9.24s9.4,4.16,9.4,9.4v56.22c0,13.71-3.54,23.87-10.32,30.65-7.39,7.39-18.79,10.93-33.42,10.93-11.4,0-21.56-2.46-31.42-7.24ZM438.02,150.47v-.31c0-13.25-10.94-22.33-23.87-22.33s-23.1,8.93-23.1,22.33v.31c0,13.25,10.32,22.33,23.1,22.33s23.87-9.09,23.87-22.33Z"/>
        <path class="cls-1" d="M475.3,154.93v-.31c0-23.26,18.48-42.51,43.43-42.51s43.28,18.94,43.28,42.2v.31c0,23.1-18.48,42.36-43.59,42.36s-43.13-18.94-43.13-42.05ZM543.37,154.93v-.31c0-14.32-10.32-26.18-24.95-26.18s-24.49,11.71-24.49,25.88v.31c0,14.17,10.32,26.03,24.8,26.03s24.64-11.7,24.64-25.72Z"/>
        <path class="cls-1" d="M721.21,203.45c-23.57,0-41.74-17.1-41.74-42.2v-.31c0-23.26,16.48-42.36,39.74-42.36,25.88,0,38.66,21.26,38.66,40.05,0,5.24-4.01,8.93-8.78,8.93h-50.98c2,13.25,11.4,20.64,23.41,20.64,7.86,0,14.02-2.77,19.25-7.08,1.39-1.08,2.62-1.69,4.78-1.69,4.16,0,7.39,3.23,7.39,7.55,0,2.31-1.08,4.31-2.46,5.7-7.39,6.62-16.63,10.78-29.26,10.78ZM739.69,155.24c-1.23-12.01-8.32-21.41-20.64-21.41-11.4,0-19.41,8.78-21.1,21.41h41.74Z"/>
        <path class="cls-1" d="M780.82,179.11v-42.82h-3.08c-4.47,0-8.01-3.54-8.01-8.01s3.54-8.01,8.01-8.01h3.08v-13.86c0-5.08,4.16-9.24,9.39-9.24s9.24,4.16,9.24,9.24v13.86h14.63c4.47,0,8.16,3.54,8.16,8.01s-3.7,8.01-8.16,8.01h-14.63v39.89c0,7.24,3.7,10.16,10.01,10.16,2.16,0,4-.46,4.62-.46,4.16,0,7.86,3.39,7.86,7.7,0,3.39-2.31,6.16-4.93,7.24-4,1.39-7.86,2.16-12.78,2.16-13.71,0-23.41-6.01-23.41-23.87Z"/>
      </g>
      <g>
        <path class="cls-1" d="M167.67,172.54L107.95,37.66c-4.16-9.3-11.5-14.93-21.79-14.93h-2.2c-10.28,0-17.87,5.63-22.03,14.93l-5.63,12.71c.11.04.22.07.33.11.32.11.75.1,1.07-.02.87-.34,1.68-.83,2.55-1.14,2.78-.99,5.63-1.25,8.53-.58,1.15.27,1.13.28,1.61-.78,1.38-3.08,3.43-5.53,6.54-7.01,1.62-.77,3.29-1.14,5.18-.94-2.51,3.44-5.22,6.65-6.52,10.85.78.08,1.39.09,1.97-.34,2.46-1.84,4.88-3.75,7.43-5.45,2.23-1.49,4.71-2.54,7.43-2.84,1.72-.19,3.3.19,4.6,1.51-1.66,1.58-3.31,3.06-4.87,4.64-1.81,1.83-3.52,3.75-5.29,5.62-.42.44-.22.69.12,1.08,1.35,1.58,2.83,3.09,3.93,4.83,1.43,2.27,2.52,4.75,3.81,7.12,1.03,1.88,2.07,3.76,3.22,5.56,1.43,2.25,2.93,4.5,5,6.2,1.99,1.63,4.16,3.02,6.27,4.51,5.06,3.58,10.15,7.11,15.18,10.73,3.23,2.32,3.78,6.92,1.32,10.03-.29.36-.46.86-.56,1.33-.58,2.72-1.73,4.97-4.6,5.9-.19.06-.39.22-.51.38-1.91,2.66-4.59,4.16-7.66,4.97-3.76.98-7.54.68-11.28-.18-.54-.12-.92-.05-1.36.29-2.13,1.64-4.48,2.9-6.99,3.84-1.97.74-5.94,1.23-16.1-2.92l-43.32-15.39L2.2,172.54c-1.22,2.69-2.2,5.38-2.2,8.08,0,9.79,7.59,17.62,17.38,17.62,7.83,0,14.2-4.41,17.38-11.75l12-28.15c2.23-2.34,16.71-16.97,39.47-16.2,20.6.7,33.38,13.54,35.92,16.2,3.84,8.98,7.67,17.95,11.51,26.93,3.43,7.83,9.3,12.97,18.12,12.97,10.03,0,17.87-8.08,17.87-18.11,0-2.45-.73-4.89-1.96-7.59Z"/>
        <path class="cls-1" d="M39.07,92.56c1.14-3.83,4.62-14.44,12.05-23.46,1.8-2.19,5.47-6.29,11.27-10.43,1.14-.82,2.41-1.46,4.33-2.61.54,3.93,1.13,7.19,1.4,10.47.21,2.49,1.36,3.37,3.74,3.15,6.48-.58,11.04,1.89,13.92,8,1.72,3.66,4.97,6.01,9.13,7.14,1.32.36,2.9,2.14,3.2,3.52,1.76,8.23-2.51,13.95-12.29,17.03-1.6.5-3.21,1.05-4.72,1.78-8.36-3.15-15.44-5.45-20.62-7.04-16.48-5.06-18.07-4.2-21.39-7.55,0,0-.27-.28-.75-.75"/>
      </g>
      <path class="cls-1" d="M709.48,0c-2.09,0-4.13.65-4.13.65-.62.18-1.37.47-2.17.93,0,0-1.79,1.03-3.15,2.83-1.49,1.96-29.1,57.34-67.52,135.18-2.71,1.62-5.72,2.64-8.99,2.43-2.94-.19-5.52-1.36-7.77-2.98-18.46-39.71-31.45-67.63-33.92-73.52-.48-1.14-1.95-4.88-5.69-7.2-2.05-1.28-4.55-2.01-7.5-2.01-7.32,0-12.98,5.65-12.98,12.56,0,2.3.63,4.19,1.47,6.07l51.28,120.57c2.72,6.49,7.53,10.47,14.65,10.47h1.47c7.33,0,12.14-3.98,14.86-10.47l81.6-177.71c.63-1.47,1.26-3.56,1.26-5.44,0-6.91-5.65-12.35-12.77-12.35Z"/>
    </g>
  </g>
</svg>