<?xml version="1.0" encoding="UTF-8"?>
<svg id="Capa_2" data-name="Capa 2" xmlns="http://www.w3.org/2000/svg" viewBox="0 0 1668.22 319.75">
  <defs>
    <style>
      .cls-1 {
        fill: #c7c7c7;
      }
    </style>
  </defs>
  <g id="Capa_1-2" data-name="Capa 1">
    <g>
      <g>
        <path class="cls-1" d="M0,296.02V1.23c0-2.46,6.39-.5,7.81-.41,141.03,9.74,182.46,199.14,66.14,273.33-21.98,14.02-47.84,21.3-73.95,21.85Z"/>
        <path class="cls-1" d="M167.76,296.02V0c25.25.71,49.7,7.34,71.28,20.41,93.19,56.43,93.44,197.98.51,254.89-21.74,13.31-46.28,19.99-71.79,20.72Z"/>
      </g>
      <g>
        <path class="cls-1" d="M569.19,18.74c-17.78-7.72-38.31-11.58-61.6-11.58-25.5,0-47.81,5.21-66.93,15.63-19.12,10.42-33.96,25.13-44.5,44.13-10.54,19-15.81,41.37-15.81,67.12s5.27,48.12,15.81,67.12c10.54,19,25.38,33.71,44.5,44.13,19.12,10.42,41.43,15.63,66.93,15.63,23.29,0,43.82-3.86,61.6-11.58,17.77-7.72,31.63-18.81,41.56-33.28,9.93-14.46,14.89-31.5,14.89-51.12v-4.78h-43.76v4.78c0,18.88-6.07,33.22-18.2,43.03-12.14,9.81-30.71,14.71-55.71,14.71-19.37,0-35.37-3.13-47.99-9.38-12.63-6.25-22.07-15.93-28.32-29.05-6.25-13.11-9.38-29.85-9.38-50.2s3.13-37.38,9.38-50.38c6.25-12.99,15.69-22.62,28.32-28.87,12.62-6.25,28.62-9.38,47.99-9.38,25.01,0,43.58,4.91,55.71,14.71,12.14,9.81,18.2,24.15,18.2,43.03v4.78h43.76v-4.78c0-19.86-4.96-36.96-14.89-51.3-9.93-14.34-23.78-25.38-41.56-33.1Z"/>
        <path class="cls-1" d="M814.11,80.89c-11.16-6.74-25.07-10.11-41.74-10.11-15.45,0-28.44,2.82-38.98,8.46-10.54,5.64-18.7,13-24.46,22.06-5.76,9.07-9.75,18.76-11.95,29.05h-2.21V10.83h-39.72v246.4h39.72v-88.63c0-12.99,1.9-24.09,5.7-33.28,3.8-9.19,9.99-16.3,18.57-21.33,8.58-5.02,20.1-7.54,34.57-7.54,19.12,0,32.97,3.99,41.56,11.95,8.58,7.97,12.87,21.15,12.87,39.53v99.29h39.35v-108.86c0-14.95-2.76-28.25-8.27-39.9-5.52-11.64-13.85-20.84-25.01-27.58Z"/>
        <path class="cls-1" d="M1019.32,80.52c-12.38-6.49-28.26-9.75-47.62-9.75s-35.98,3.19-49.83,9.56c-13.85,6.38-24.46,15.02-31.81,25.93-7.35,10.91-11.03,23.35-11.03,37.33v1.47h39.35v-1.47c0-13.48,4.17-23.17,12.5-29.05,8.33-5.88,20.96-8.83,37.88-8.83s30.09,3.01,37.33,9.01c7.23,6.01,10.85,16.61,10.85,31.81v10.69l-83.11,8.8c-12.02,1.47-22.43,4.05-31.26,7.72-8.83,3.68-15.63,8.77-20.41,15.26-4.78,6.5-7.17,14.53-7.17,24.09,0,14.96,5.57,26.66,16.73,35.12,11.15,8.46,26.17,12.69,45.05,12.69,20.84,0,38.18-4.35,52.04-13.06,13.85-8.7,23.23-20.78,28.13-36.22h2.57v45.6h36.41v-111.06c0-14.71-3-27.7-9.01-38.98-6.01-11.27-15.2-20.16-27.58-26.66ZM983.83,226.89c-10.3,3.56-22.43,5.33-36.41,5.33-11.28,0-19.55-1.78-24.82-5.33-5.28-3.55-7.91-9.01-7.91-16.37s2.51-12.19,7.54-15.26c5.02-3.06,12.69-5.21,22.98-6.44l71.71-8.05c0,11.99-2.95,21.79-8.83,29.38-5.88,7.6-13.97,13.18-24.27,16.73Z"/>
        <rect class="cls-1" x="1091.21" y="74.46" width="39.72" height="182.78"/>
        <rect class="cls-1" x="1091.21" y="10.83" width="39.72" height="42.29"/>
        <path class="cls-1" d="M1325.11,81.08c-11.28-6.86-25.38-10.3-42.29-10.3-15.45,0-28.5,2.88-39.17,8.64-10.67,5.76-19,13.24-25.01,22.43-6.01,9.19-9.99,18.94-11.95,29.24h-2.57v-56.63h-36.41v182.78h39.72v-90.47c0-19.86,4.72-34.87,14.16-45.05,9.43-10.17,24.09-15.26,43.95-15.26s32.79,4.29,41,12.87c8.21,8.58,12.32,21.46,12.32,38.61v99.29h39.72v-109.96c0-14.22-2.76-27.09-8.27-38.61-5.52-11.52-13.92-20.72-25.19-27.58Z"/>
        <rect class="cls-1" x="1393.87" y="10.83" width="39.72" height="246.4"/>
        <path class="cls-1" d="M1624.45,74.46l-43.03,96.72-17.28,44.13h-2.94l-18.02-43.76-46.71-97.09h-44.5l90.12,182.75-4.44,9.59c-2.7,6.13-6.07,10.48-10.11,13.06-4.05,2.57-10.11,3.86-18.2,3.86h-35.67v36.04h26.11c12.5,0,23.29-1.29,32.36-3.86,9.07-2.57,16.92-6.99,23.54-13.24,6.62-6.25,12.38-14.77,17.29-25.56l95.25-202.63h-43.76Z"/>
      </g>
    </g>
  </g>
</svg>