<?xml version="1.0" encoding="utf-8"?>
<!-- Generator: Adobe Illustrator 26.5.0, SVG Export Plug-In . SVG Version: 6.00 Build 0)  -->
<svg version="1.1" id="Capa_1" xmlns="http://www.w3.org/2000/svg" xmlns:xlink="http://www.w3.org/1999/xlink" x="0px" y="0px"
	 viewBox="0 0 1000 1000" style="enable-background:new 0 0 1000 1000;" xml:space="preserve">
<style type="text/css">
	.st0{fill:#222323;}
</style>
<g id="Capa_1_00000139983981390977030680000005425041821238252962_">
	<g>
		<g>
			<g>
				<g>
					<path class="st0" d="M247.5,532.5c0-6,4.6-10.8,10.6-10.8s10.8,4.8,10.8,10.8v4.4c6-8.3,14.2-16.1,28.5-16.1
						c13.5,0,23,6.5,28,16.5c7.4-9.9,17.4-16.5,31.5-16.5c20.4,0,32.8,12.9,32.8,35.8v50c0,6-4.6,10.6-10.6,10.6
						c-6,0-10.8-4.6-10.8-10.6v-43.4c0-14.9-6.9-22.8-19-22.8c-11.7,0-20,8.2-20,23.2v43c0,6-4.8,10.6-10.6,10.6
						c-6,0-10.8-4.6-10.8-10.6V563c0-14.5-7.1-22.7-19-22.7s-20,8.9-20,23.2v43c0,6-4.8,10.6-10.8,10.6c-5.9,0-10.6-4.6-10.6-10.6
						L247.5,532.5L247.5,532.5z"/>
					<path class="st0" d="M415.5,497.6c0-6.4,5.3-10.5,12.2-10.5s12.2,4.1,12.2,10.5v1.1c0,6.4-5.3,10.6-12.2,10.6
						s-12.2-4.2-12.2-10.6V497.6z M417.1,532.5c0-6,4.6-10.8,10.6-10.8c6,0,10.8,4.8,10.8,10.8v74c0,6-4.8,10.6-10.8,10.6
						c-5.9,0-10.6-4.6-10.6-10.6V532.5z"/>
					<path class="st0" d="M472,636.7c-3.7-1.4-6-4.4-6-8.5c0-4.8,4.1-8.9,9-8.9c1.6,0,2.8,0.4,3.9,0.9c8.5,4.8,17.9,7.4,28.7,7.4
						c19.1,0,29.6-9.9,29.6-28.7v-7.3c-7.8,10.1-17.5,17.2-33,17.2c-22,0-42.5-16.3-42.5-43.8v-0.4c0-27.6,20.7-43.9,42.5-43.9
						c15.8,0,25.5,7.3,32.8,16v-4.4c0-5.8,4.8-10.6,10.6-10.6c6,0,10.8,4.8,10.8,10.8v64.7c0,15.8-4.1,27.5-11.9,35.3
						c-8.5,8.5-21.6,12.6-38.4,12.6C495,645,483.3,642.2,472,636.7z M537.4,564.9v-0.4c0-15.2-12.6-25.7-27.5-25.7
						s-26.6,10.3-26.6,25.7v0.4c0,15.2,11.9,25.7,26.6,25.7C524.8,590.6,537.4,580.1,537.4,564.9z"/>
					<path class="st0" d="M580.2,570v-0.4c0-26.8,21.3-48.9,50-48.9s49.8,21.8,49.8,48.5v0.3c0,26.6-21.3,48.7-50.1,48.7
						C601.3,618.4,580.2,596.6,580.2,570z M658.5,570v-0.4c0-16.5-11.9-30.1-28.7-30.1c-17.2,0-28.2,13.5-28.2,29.8v0.3
						c0,16.3,11.9,29.9,28.5,29.9C647.5,599.6,658.5,586.2,658.5,570z"/>
					<path class="st0" d="M850.2,619.2c-27.1,0-48-19.7-48-48.5v-0.3c0-26.8,19-48.7,45.7-48.7c29.8,0,44.5,24.5,44.5,46.1
						c0,6-4.6,10.3-10.1,10.3h-58.6c2.3,15.2,13.1,23.7,26.9,23.7c9,0,16.1-3.2,22.1-8.2c1.6-1.2,3-2,5.5-2c4.8,0,8.5,3.7,8.5,8.7
						c0,2.7-1.2,5-2.8,6.6C875.4,614.4,864.8,619.2,850.2,619.2z M871.5,563.8c-1.4-13.8-9.6-24.6-23.7-24.6
						c-13.1,0-22.3,10.1-24.3,24.6H871.5z"/>
					<path class="st0" d="M918.8,591.2V542h-3.5c-5.1,0-9.2-4.1-9.2-9.2s4.1-9.2,9.2-9.2h3.5v-15.9c0-5.9,4.8-10.6,10.8-10.6
						c5.8,0,10.6,4.8,10.6,10.6v15.9h16.8c5.1,0,9.4,4.1,9.4,9.2s-4.2,9.2-9.4,9.2h-16.8v45.9c0,8.3,4.2,11.7,11.5,11.7
						c2.5,0,4.6-0.5,5.3-0.5c4.8,0,9,3.9,9,8.9c0,3.9-2.7,7.1-5.7,8.3c-4.6,1.6-9,2.5-14.7,2.5C930,618.7,918.8,611.8,918.8,591.2z"
						/>
				</g>
				<g>
					<g>
						<path class="st0" d="M226.4,590.3l-68.7-155.1c-4.8-10.7-13.2-17.2-25.1-17.2h-2.5c-11.8,0-20.6,6.5-25.3,17.2l-6.5,14.6
							c0.1,0,0.2,0.1,0.4,0.1c0.4,0.1,0.9,0.1,1.2,0c1-0.4,1.9-1,2.9-1.3c3.2-1.1,6.5-1.4,9.8-0.7c1.3,0.3,1.3,0.3,1.8-0.9
							c1.6-3.5,3.9-6.4,7.5-8.1c1.9-0.9,3.8-1.3,6-1.1c-2.9,4-6,7.6-7.5,12.5c0.9,0.1,1.6,0.1,2.3-0.4c2.8-2.1,5.6-4.3,8.5-6.3
							c2.6-1.7,5.4-2.9,8.5-3.3c2-0.2,3.8,0.2,5.3,1.7c-1.9,1.8-3.8,3.5-5.6,5.3c-2.1,2.1-4.1,4.3-6.1,6.5c-0.5,0.5-0.2,0.8,0.1,1.2
							c1.6,1.8,3.2,3.5,4.5,5.5c1.6,2.6,2.9,5.5,4.4,8.2c1.2,2.2,2.4,4.3,3.7,6.4c1.6,2.6,3.4,5.2,5.8,7.1c2.3,1.9,4.8,3.5,7.2,5.2
							c5.8,4.1,11.7,8.2,17.5,12.3c3.7,2.7,4.4,8,1.5,11.5c-0.3,0.4-0.5,1-0.6,1.5c-0.7,3.1-2,5.7-5.3,6.8c-0.2,0.1-0.4,0.2-0.6,0.4
							c-2.2,3.1-5.3,4.8-8.8,5.7c-4.3,1.1-8.7,0.8-13-0.2c-0.6-0.1-1.1-0.1-1.6,0.3c-2.4,1.9-5.1,3.3-8,4.4
							c-2.3,0.8-6.8,1.4-18.5-3.3l-49.8-17.7l-35.8,80.9c-1.4,3.1-2.5,6.2-2.5,9.3c0,11.3,8.7,20.3,20,20.3c9,0,16.3-5.1,20-13.5
							L87.3,574c2.6-2.7,19.2-19.5,45.4-18.6c23.7,0.8,38.4,15.6,41.3,18.6c4.4,10.3,8.8,20.7,13.2,31c3.9,9,10.7,14.9,20.8,14.9
							c11.5,0,20.6-9.3,20.6-20.8C228.6,596.2,227.8,593.4,226.4,590.3z"/>
						<path class="st0" d="M78.5,498.3c1.3-4.4,5.3-16.6,13.9-27c2.1-2.5,6.3-7.2,13-12c1.3-0.9,2.8-1.7,5-3c0.6,4.5,1.3,8.3,1.6,12
							c0.2,2.9,1.6,3.9,4.3,3.6c7.5-0.7,12.7,2.2,16,9.2c2,4.2,5.7,6.9,10.5,8.2c1.5,0.4,3.3,2.5,3.7,4c2,9.5-2.9,16-14.1,19.6
							c-1.8,0.6-3.7,1.2-5.4,2c-9.6-3.6-17.8-6.3-23.7-8.1C84.1,501.2,82.3,502.1,78.5,498.3c0,0-0.3-0.3-0.9-0.9"/>
					</g>
				</g>
			</g>
		</g>
		<path class="st0" d="M841.7,355c-8.1,0-14.3,5.3-16.5,11.2l-73.6,178.9c-3.7,1.5-7.6,2.4-11.8,2.4c-3.9,0-7.6-0.7-11-2.1
			l-45.2-113.1c-2.8-7.3-8.7-12.3-17.6-12.3c-9.8,0-17.3,7.6-17.3,16.8c0,3.1,0.8,5.6,2,8.1l68.6,161.2c3.6,8.7,10.1,14,19.6,14h2
			c9.8,0,16.2-5.3,19.9-14l96.5-227.4c0.8-2,1.7-4.8,1.7-7.3C858.8,362.3,851.2,355,841.7,355z"/>
	</g>
</g>
</svg>
