<?xml version="1.0" encoding="utf-8"?>
<!-- Generator: Adobe Illustrator 26.5.0, SVG Export Plug-In . SVG Version: 6.00 Build 0)  -->
<svg version="1.1" id="Capa_1" xmlns="http://www.w3.org/2000/svg" xmlns:xlink="http://www.w3.org/1999/xlink" x="0px" y="0px"
	 viewBox="0 0 1000 1000" style="enable-background:new 0 0 1000 1000;" xml:space="preserve">
<style type="text/css">
	.st0{fill:#232323;}
</style>
<g>
	<g>
		<path class="st0" d="M612.2,760.3L406.4,295.6c-14.3-32.1-39.6-51.5-75.1-51.5h-7.6c-35.4,0-61.6,19.4-75.9,51.5l-19.4,43.8
			c0.4,0.1,0.8,0.2,1.1,0.4c1.1,0.4,2.6,0.3,3.7-0.1c3-1.2,5.8-2.9,8.8-3.9c9.6-3.4,19.4-4.3,29.4-2c4,0.9,3.9,1,5.5-2.7
			c4.7-10.6,11.8-19.1,22.5-24.1c5.6-2.6,11.3-3.9,17.9-3.2c-8.7,11.8-18,22.9-22.5,37.4c2.7,0.3,4.8,0.3,6.8-1.2
			c8.5-6.3,16.8-12.9,25.6-18.8c7.7-5.1,16.2-8.8,25.6-9.8c5.9-0.6,11.4,0.7,15.8,5.2c-5.7,5.4-11.4,10.6-16.8,16
			c-6.2,6.3-12.1,12.9-18.2,19.4c-1.4,1.5-0.8,2.4,0.4,3.7c4.7,5.4,9.8,10.6,13.5,16.6c4.9,7.8,8.7,16.4,13.1,24.5
			c3.5,6.5,7.1,12.9,11.1,19.1c4.9,7.7,10.1,15.5,17.2,21.3c6.9,5.6,14.4,10.4,21.6,15.5c17.4,12.3,35,24.5,52.3,37
			c11.1,8,13,23.9,4.6,34.6c-1,1.3-1.6,3-1.9,4.6c-2,9.4-6,17.1-15.8,20.3c-0.7,0.2-1.3,0.8-1.7,1.3c-6.6,9.2-15.8,14.3-26.4,17.1
			c-12.9,3.4-26,2.3-38.9-0.6c-1.8-0.4-3.2-0.2-4.7,1c-7.3,5.6-15.4,10-24.1,13.2c-6.8,2.6-20.5,4.2-55.5-10l-149.3-53L42,760.3
			c-4.2,9.3-7.6,18.5-7.6,27.8c0,33.7,26.2,60.7,59.9,60.7c27,0,48.9-15.2,59.9-40.5l41.3-97c7.7-8,57.6-58.5,136-55.8
			c71,2.4,115,46.6,123.8,55.8c13.2,30.9,26.4,61.9,39.6,92.8c11.8,27,32.1,44.7,62.4,44.7c34.6,0,61.6-27.8,61.6-62.4
			C618.9,778,616.4,769.6,612.2,760.3z"/>
		<path class="st0" d="M169,484.7c3.9-13.2,15.9-49.8,41.5-80.8c6.2-7.5,18.8-21.7,38.8-35.9c3.9-2.8,8.3-5,14.9-9
			c1.9,13.5,3.9,24.8,4.8,36.1c0.7,8.6,4.7,11.6,12.9,10.9c22.3-2,38,6.5,48,27.6c5.9,12.6,17.1,20.7,31.5,24.6
			c4.5,1.2,10,7.4,11,12.1c6.1,28.3-8.7,48.1-42.4,58.7c-5.5,1.7-11.1,3.6-16.3,6.1c-28.8-10.8-53.2-18.8-71.1-24.3
			C186,493.3,180.5,496.3,169,484.7c0,0-0.9-1-2.6-2.6"/>
	</g>
	<path class="st0" d="M928.9,151.1c-6,0-11.9,1.9-11.9,1.9c-1.8,0.5-3.9,1.4-6.2,2.7c0,0-5.1,3-9.1,8.1
		c-4.3,5.6-83.6,164.7-194,388.3c-7.8,4.6-16.4,7.6-25.8,7c-8.5-0.6-15.8-3.9-22.3-8.6c-53-114.1-90.4-194.3-97.4-211.2
		c-1.4-3.3-5.6-14-16.3-20.7c-5.9-3.7-13.1-5.8-21.5-5.8c-21.1,0-37.3,16.2-37.3,36.1c0,6.6,1.8,12,4.2,17.4l147.3,346.4
		c7.8,18.6,21.6,30.1,42.1,30.1h4.2c21.1,0,34.9-11.4,42.7-30.1L962,202.3c1.8-4.2,3.6-10.2,3.6-15.6
		C965.6,166.8,949.3,151.1,928.9,151.1z"/>
</g>
</svg>
