<?xml version="1.0" encoding="UTF-8"?>
<svg id="Capa_2" data-name="Capa 2" xmlns="http://www.w3.org/2000/svg" viewBox="0 0 232.2 181.38">
  <defs>
    <style>
      .cls-1 {
        fill: #232323;
      }

      .cls-2 {
        fill: #f6f3ec;
      }
    </style>
  </defs>
  <g id="Capa_5" data-name="Capa 5">
    <g>
      <path class="cls-1" d="M0,181.19v-101.09c2.68-.42,6.37-1.01,10.77-1.78,7.28-1.28,8.9-1.83,10.58-2.25,9.8-2.43,15.82-9.04,18.59-18.59,1.1-3.8,3.39-6.32,7.06-7.21,4.02-.98,7.72-2.54,11.22-4.62,2.55-1.51,4.94-3.25,6.37-5.34-1.79-3.6-3.62-6.78-5-10.15-2.2-5.39-1.71-10.62,1.56-15.56,1.09-1.65,2.39-2.08,4.31-1.96,3.6.23,7.26.55,10.81.1,7.25-.92,13.83.89,20.28,3.85.64.3,1.54.37,2.22.19,1.87-.51,3.66-1.35,5.54-1.81,5.98-1.45,11.94-1.36,17.8.65,2.33.8,2.28.84,3.5-1.27,3.52-6.08,8.31-10.71,15.07-13.09,3.52-1.24,7.06-1.65,10.93-.82-5.95,6.57-12.25,12.64-15.85,21.05,1.6.35,2.87.49,4.16-.28,5.5-3.27,10.91-6.71,16.57-9.68,4.95-2.6,10.31-4.25,16-4.26,3.6-.01,6.79,1.11,9.2,4.12-3.79,2.91-7.53,5.63-11.09,8.56-4.14,3.4-8.11,7.01-12.18,10.5-.97.83-.6,1.38,0,2.25,2.46,3.56,5.19,7.01,7.09,10.85,2.47,5.01,4.18,10.4,6.34,15.57,1.71,4.12,3.46,8.23,5.46,12.21,2.48,4.96,5.08,9.95,9.01,13.92,3.77,3.8,7.97,7.17,12,10.7,9.7,8.51,19.47,16.94,29.11,25.52,6.19,5.5,6.32,15.15.56,21.05-.68.69-1.14,1.69-1.44,2.63-1.79,5.51-4.66,9.92-10.8,11.22-.41.09-.85.36-1.13.68-4.53,5.1-10.42,7.62-16.96,8.62-7.99,1.22-15.76-.24-23.33-2.83-.56-.19-1.04-.27-1.51-.21-.77.09-1.3.47-1.36.51-.82.54-35.54-5.67-51.17,1.17-10.63,4.65-12.31,15.29-25.69,16.88-2.67.32-4.9.17-6.33,0H0Z"/>
      <ellipse class="cls-2" cx="140.94" cy="68.96" rx="16.64" ry="17.94" transform="translate(58.89 202.7) rotate(-84.54)"/>
      <ellipse class="cls-1" cx="147.49" cy="72.56" rx="10.85" ry="8.45" transform="translate(61.23 212.48) rotate(-84.54)"/>
    </g>
  </g>
</svg>