<?xml version="1.0" encoding="UTF-8"?>
<svg id="Capa_2" data-name="Capa 2" xmlns="http://www.w3.org/2000/svg" viewBox="0 0 233.05 225.88">
  <defs>
    <style>
      .cls-1 {
        fill: #232323;
      }
    </style>
  </defs>
  <g id="Capa_5" data-name="Capa 5">
    <path class="cls-1" d="M96.21,35.55c-.46-.19-.92-.4-.92-.4h0c-1.21-.62-1.89-1.38-7.4-4.23-3.09-1.6-7.25-3.46-22.16-9.88-2.52-1.09-5.06-2.15-7.61-3.16-10.95-4.36-22.07-4.98-32.97.58-4.77,2.44-9.71,4.58-14.36,7.22-12.25,6.97-14.02,15.83-5.59,26.81.08.1.16.19.24.29,8.68,9.78,17.04,19.87,26.11,29.27,9.29,9.62,15.76,19.91,14.74,34.04-.62,8.66,2.2,16.88,7.37,23.89,6.2,8.4,12.68,16.62,19.47,24.54,2.27,2.64,3.48,5.01,2.79,8.31-1.79,8.53-3.65,17.05-5.43,25.58-1.63,7.8-3.41,15.57-4.73,23.42-.62,3.67.68,4.66,4.27,3.7,3.6-.97,7.14-2.22,10.58-3.66,15.5-6.5,28.32-16.43,38.78-29.64,2.43-3.08,6.05-5.51,9.58-7.36,8.93-4.68,15.65-7.54,19.04-8.68,19.79-6.64,27.62-28.14,54.91-45.59,6.31-4.03,16.18-9.44,29.98-13.49.62-13.43-.68-24.45-2.06-32.22-4.32-24.34-15.69-51.89-29.42-62.38-1.16-.89-4.68-3.44-8.9-7.68-5.6-5.64-9.3-11.1-11.54-14.83-22.09,12.01-44.18,24.01-66.27,36.02,0,0-15.14.92-18.5-.46Z"/>
  </g>
</svg>